# xmcd
#
# Track frame offsets: 
#        150
#        33281
#        61163
#        84694
#        109686
#        135268
#        157655
#        180918
#        209707
#        231515
#        255651
#        275861
#        300567
#        320138
#
# Disc length: 4486 seconds
#
# Revision: 1
# Processed by: cddbd v1.5.2PL0 Copyright (c) Steve Scherf et al.
# Submitted via: ExactAudioCopy v0.99pb5
#
DISCID=be11840e
DTITLE=Various Artist - Campus Suite Lounge - Volume I
DYEAR=1900
DGENRE=
TTITLE0=Lisa Shaw and Ethan White - Find The Way
TTITLE1=Nassau feat. Krista - Rebound
TTITLE2=Ralf Gum feat. Wunmi - Brother Like No Other
TTITLE3=Sumo - Seducao
TTITLE4=Danny Marquez - Vibrations
TTITLE5=Knee Deep - All About Love
TTITLE6=Aya - Sean
TTITLE7=Dj Rasoul - Let Me Love You
TTITLE8=Gaelle - Give It Back
TTITLE9=Converge - Deep Inside
TTITLE10=Cuck Love and Spur - Share It
TTITLE11=UPZ - Moment With You
TTITLE12=Acos CoolKAs feat. Metropoliz - Miracle 2008
TTITLE13=Naked Music - Hurry
EXTD=
EXTT0=
EXTT1=
EXTT2=
EXTT3=
EXTT4=
EXTT5=
EXTT6=
EXTT7=
EXTT8=
EXTT9=
EXTT10=
EXTT11=
EXTT12=
EXTT13=
PLAYORDER=
